# xmcd
#
# Track frame offsets: 
#        150
#        3750
#        23532
#        41184
#        57008
#        65788
#        85014
#        106347
#        110057
#        133373
#        150202
#        176947
#        191548
#        222169
#        226286
#        241517
#        262401
#
# Disc length: 3570 seconds
#
# Revision: 0
# Processed by: cddbd v1.5PL3 Copyright (c) Steve Scherf et al.
# Submitted via: ExactAudioCopy v0.95a3
#
DISCID=e40df011
DTITLE=Universal Blues Band - Get On The Blues Train
DYEAR=2000
DGENRE=Blues
TTITLE0=Daytrain
TTITLE1=Get On The Blues Train
TTITLE2=Walking Blues
TTITLE3=I Can't Cook
TTITLE4=Marnie Lee
TTITLE5=Talk To The Hand
TTITLE6=Cooking With Gas
TTITLE7=Night Train
TTITLE8=Night Is Calling
TTITLE9=Starting Out My Doorway
TTITLE10=From The Day We Met
TTITLE11=Come In My Kitchen
TTITLE12=It's Your Call
TTITLE13=Almost Home
TTITLE14=Monkey Off My Back
TTITLE15=Get On The Blues Train (GospelVersion)
TTITLE16=Countdown
EXTD=
EXTT0=
EXTT1=
EXTT2=
EXTT3=
EXTT4=
EXTT5=
EXTT6=
EXTT7=
EXTT8=
EXTT9=
EXTT10=
EXTT11=
EXTT12=
EXTT13=
EXTT14=
EXTT15=
EXTT16=
PLAYORDER=
